# xmcd
#
# Track frame offsets: 
#        150
#        11777
#        24821
#        38518
#        50958
#        64962
#        77644
#        90114
#        104276
#        117510
#        135533
#        149944
#        161861
#        173874
#        186558
#        198188
#        211394
#        222131
#        236358
#        250501
#        260220
#        272372
#        286251
#        297730
#        305402
#        313055
#        323997
#        335077
#        343203
#
# Disc length: 4687 seconds
#
# Revision: 1
# Processed by: cddbd v1.5.2PL0 Copyright (c) Steve Scherf et al.
# Submitted via: ExactAudioCopyFreeDBPlugin 1.0
#
DISCID=c4124d1d
DTITLE=Blind Willie McTell - Statesboro Blues CD2 (Compilation Blues C
DTITLE=haracters)
DYEAR=2015
DGENRE=Blues
TTITLE0=Kill it Kid
TTITLE1=Razor blues
TTITLE2=Little Delia
TTITLE3=Broke down engine blues
TTITLE4=Dying crapshooter's blues
TTITLE5=Pinetop's boogie woogie
TTITLE6=Blues around midnight
TTITLE7=On the cooling board
TTITLE8=Motherless children have hard time
TTITLE9=I got to cross the river O' Jordan
TTITLE10=You got to die
TTITLE11=Ain't it grand to be a christian
TTITLE12=Soon this morning
TTITLE13=Last dime blues
TTITLE14=Don't forget it
TTITLE15=You can't get stuff no more
TTITLE16=Savannah mama
TTITLE17=Talkin' to you mama
TTITLE18=Wee midnight hours
TTITLE19=Pal of mine (Take 1)
TTITLE20=Honey it must be love
TTITLE21=Sending up my timber
TTITLE22=Lord have mercy if you please
TTITLE23=That will never happen no more
TTITLE24=Goodbye blues
TTITLE25=Salty dog
TTITLE26=Beedle um bum
TTITLE27=A to Z blues
TTITLE28=Wabash cannonball
EXTD=
EXTT0=
EXTT1=
EXTT2=
EXTT3=
EXTT4=
EXTT5=
EXTT6=
EXTT7=
EXTT8=
EXTT9=
EXTT10=
EXTT11=
EXTT12=
EXTT13=
EXTT14=
EXTT15=
EXTT16=
EXTT17=
EXTT18=
EXTT19=
EXTT20=
EXTT21=
EXTT22=
EXTT23=
EXTT24=
EXTT25=
EXTT26=
EXTT27=
EXTT28=
PLAYORDER=
